<mxfile host="Electron" agent="Mozilla/5.0 (Windows NT 10.0; Win64; x64) AppleWebKit/537.36 (KHTML, like Gecko) draw.io/24.7.17 Chrome/128.0.6613.36 Electron/32.0.1 Safari/537.36" version="24.7.17">
  <diagram name="Страница — 1" id="VLU_vV9USnLCU24Wx7LO">
    <mxGraphModel dx="1276" dy="614" grid="1" gridSize="10" guides="1" tooltips="1" connect="1" arrows="1" fold="1" page="1" pageScale="1" pageWidth="827" pageHeight="1169" math="0" shadow="0">
      <root>
        <mxCell id="0" />
        <mxCell id="1" parent="0" />
        <mxCell id="gRfzpazEry9Y2G7q8JUG-1" value="" style="rounded=0;whiteSpace=wrap;html=1;" vertex="1" parent="1">
          <mxGeometry x="20" y="20" width="420" height="260" as="geometry" />
        </mxCell>
        <mxCell id="gRfzpazEry9Y2G7q8JUG-2" value="Ассортимент&amp;nbsp;" style="rounded=0;whiteSpace=wrap;html=1;" vertex="1" parent="1">
          <mxGeometry x="40" y="40" width="380" height="220" as="geometry" />
        </mxCell>
        <mxCell id="gRfzpazEry9Y2G7q8JUG-3" value="" style="rounded=0;whiteSpace=wrap;html=1;" vertex="1" parent="1">
          <mxGeometry x="50" y="50" width="360" height="80" as="geometry" />
        </mxCell>
        <mxCell id="gRfzpazEry9Y2G7q8JUG-4" value="Изображение&lt;div&gt;товара&lt;/div&gt;" style="rounded=0;whiteSpace=wrap;html=1;" vertex="1" parent="1">
          <mxGeometry x="60" y="60" width="90" height="60" as="geometry" />
        </mxCell>
        <mxCell id="gRfzpazEry9Y2G7q8JUG-8" value="Название" style="rounded=0;whiteSpace=wrap;html=1;" vertex="1" parent="1">
          <mxGeometry x="160" y="60" width="80" height="30" as="geometry" />
        </mxCell>
        <mxCell id="gRfzpazEry9Y2G7q8JUG-9" value="Цена" style="rounded=0;whiteSpace=wrap;html=1;" vertex="1" parent="1">
          <mxGeometry x="160" y="100" width="80" height="20" as="geometry" />
        </mxCell>
        <mxCell id="gRfzpazEry9Y2G7q8JUG-10" value="Описание" style="rounded=0;whiteSpace=wrap;html=1;" vertex="1" parent="1">
          <mxGeometry x="250" y="60" width="90" height="60" as="geometry" />
        </mxCell>
        <mxCell id="gRfzpazEry9Y2G7q8JUG-11" value="ред" style="rounded=0;whiteSpace=wrap;html=1;" vertex="1" parent="1">
          <mxGeometry x="350" y="60" width="50" height="30" as="geometry" />
        </mxCell>
        <mxCell id="gRfzpazEry9Y2G7q8JUG-12" value="Удалить" style="rounded=0;whiteSpace=wrap;html=1;" vertex="1" parent="1">
          <mxGeometry x="350" y="100" width="50" height="20" as="geometry" />
        </mxCell>
      </root>
    </mxGraphModel>
  </diagram>
</mxfile>
